<svg xmlns="http://www.w3.org/2000/svg" xmlns:xlink="http://www.w3.org/1999/xlink" viewBox="0 0 73 76" fill="#fff" fill-rule="evenodd" stroke="#000" stroke-linecap="round" stroke-linejoin="round"><style><![CDATA[.B{stroke:#212011}.C{stroke-linejoin:miter}.D{stroke:none}.E{stroke-width:.005}.F{fill:url(#D)}]]></style><use xlink:href="#O" x=".5" y=".5"/><defs><radialGradient id="A" cy="19%" cx="73%" r="83%" fx="73%" fy="19%"><stop stop-color="#a87234" offset="0%"/><stop stop-color="#c69458" offset="100%"/></radialGradient><radialGradient id="B" fx="19%" fy="62%" cy="47%" cx="47%" r="49%"><stop stop-color="#8d3529" offset="0%"/><stop stop-color="#8e382a" offset="23.8%"/><stop stop-color="#92422b" offset="49.1%"/><stop stop-color="#99512e" offset="75%"/><stop stop-color="#a26431" offset="100%"/></radialGradient><radialGradient id="C" cy="50%" cx="50%" r="50%" fx="50%" fy="50%"><stop stop-color="#d3a668" offset="0%"/><stop stop-color="#c69458" offset="77%"/><stop stop-color="#d6aa6e" offset="100%"/></radialGradient><radialGradient id="D" cy="50%" cx="50%" r="50%" fx="50%" fy="50%"><stop stop-color="#d3a668" offset="0%"/><stop stop-color="#c69458" offset="84.8%"/><stop stop-color="#d6aa6e" offset="100%"/></radialGradient><radialGradient id="E" cy="103%" cx="19%" r="92%" fx="19%" fy="103%"><stop stop-color="#a77536" offset="0%"/><stop stop-color="#a36c32" offset="24.8%"/><stop stop-color="#9e5e2d" offset="71%"/><stop stop-color="#9d582b" offset="100%"/></radialGradient><radialGradient id="F" cy="50%" cx="50%" r="50%" fx="50%" fy="50%"><stop stop-color="#a87234" offset="0%"/><stop stop-color="#a76f34" offset="43.5%"/><stop stop-color="#a36732" offset="89.6%"/><stop stop-color="#a26431" offset="100%"/></radialGradient><radialGradient id="G" cy="50%" cx="50%" r="50%" fx="50%" fy="50%"><stop stop-color="#a56a31" offset="10.7%"/><stop stop-color="#a26431" offset="84.3%"/><stop stop-color="#c4935b" offset="91.6%"/><stop stop-color="#f9db9c" offset="100%"/></radialGradient><radialGradient id="H" cy="50%" cx="50%" r="51%" fx="50%" fy="50%"><stop stop-color="#a87234" offset="0%"/><stop stop-color="#a76f34" offset="43.5%"/><stop stop-color="#a36732" offset="89.6%"/><stop stop-color="#a26431" offset="100%"/></radialGradient><radialGradient id="I" cy="107%" cx="24%" r="118%" fx="24%" fy="107%"><stop stop-color="#8d3529" offset="0%"/><stop stop-color="#a26431" offset="100%"/></radialGradient><radialGradient id="J" cy="50%" cx="50%" r="50%" fx="50%" fy="50%"><stop stop-color="#a56a31" offset="10.7%"/><stop stop-color="#a26431" offset="79.2%"/><stop stop-color="#c7975f" offset="100%"/></radialGradient><radialGradient id="K" fx="63%" fy="35%" cy="50%" cx="50%" r="50%"><stop stop-color="#d3a668" offset="0%"/><stop stop-color="#c69458" offset="77%"/><stop stop-color="#d6aa6e" offset="100%"/></radialGradient><radialGradient id="L" cy="99%" cx="30%" r="94%" fx="30%" fy="99%"><stop stop-color="#a87234" offset="0%"/><stop stop-color="#8d3529" offset="51.1%"/><stop stop-color="#873527" offset="89.9%"/></radialGradient><radialGradient id="M" cy="110%" cx="32%" r="101%" fx="32%" fy="110%"><stop stop-color="#8d3529" offset="7.3%"/><stop stop-color="#873527" offset="89.9%"/></radialGradient><radialGradient id="N" fx="20%" fy="47%" cy="50%" cx="50%" r="50%"><stop stop-color="#8d3529" offset="0%"/><stop stop-color="#8e382a" offset="23.8%"/><stop stop-color="#92422b" offset="49.1%"/><stop stop-color="#99512e" offset="75%"/><stop stop-color="#a26431" offset="100%"/></radialGradient></defs><symbol id="O" overflow="visible"><g fill-rule="nonzero"><path d="M49.841 35.004c0 8.391-6.802 15.191-15.191 15.191s-15.191-6.8-15.191-15.191 6.801-15.195 15.191-15.195 15.191 6.804 15.191 15.195z" fill="url(#A)" stroke-width=".015" class="B C"/><path d="M28.513 37.72c-.012 1.906.55 4.122 1.693 5.667 1.134 1.535 3.084 2.553 4.935 2.889 1.568.283 3.083.34 4.572-.278.575-.239 1.402-.533 1.749-1.091.333-.535-.021-1.174-.266-1.67 1.425-.271 2.55-.701 3.689-1.608 1.178-.938 2.525-1.907 3.101-3.355.572-1.437.482-3.112 1.798-4.16.951-.756 2.602-1.141 2.159-2.703-.412-1.45-1.817-2.403-2.885-3.353-1.36-1.21-2.639-2.332-4.39-2.947-3.39-1.189-7.771-.706-10.643 1.516-1.461 1.13-2.647 2.828-3.637 4.368-1.044 1.621-1.469 3.257-1.508 5.169l-.37 1.555z" fill="url(#B)" class="D"/><g class="B C E"><path d="M29.37 13.393c0 7.399-5.996 13.393-13.393 13.393S2.584 20.791 2.584 13.393 8.58 0 15.978 0 29.37 5.997 29.37 13.393z" fill="url(#C)"/><path d="M66.898 54.192c0 7.142-5.815 12.927-12.993 12.927s-12.993-5.786-12.993-12.927 5.817-12.924 12.993-12.924 12.992 5.786 12.992 12.925z" class="F"/></g><path d="M52.772 59.259c.299.416.672 1.119 1.182 1.317.409.156.855-.156 1.239-.277 1.073-.33 2.595-.039 3.262-1.138.264-.439.4-.932.73-1.337.42-.514 1.003-.862 1.493-1.301 1.021-.92 1.543-2.2 2.434-3.228.818-.946 1.509-1.816 1.543-3.132.032-1.182-.517-2.081-1.21-2.984-.6-.784-1.047-1.652-1.621-2.447-.654-.914-1.506-1.411-2.571-1.725-1.244-.364-2.537-.589-3.826-.715-.958-.091-1.995-.208-2.899.197l-.022.111.265 16.659z" fill="url(#E)" class="D"/><path d="M48.641 59.324c0 8.576-7.22 15.527-16.126 15.527s-16.124-6.95-16.124-15.527S23.609 43.8 32.515 43.8s16.126 6.951 16.126 15.524z" class="B C E F"/><path d="M26.118 48.064c-2.123.323-3.94 1.029-5.376 2.694-1.59 1.846-3.126 4.259-3.552 6.677-.229 1.301-.047 2.53.421 3.752a12.36 12.36 0 0 1 .691 2.652c.163 1.047.46 2.02 1.127 2.862.716.906 1.656 1.66 2.528 2.408 1.109.954 2.315 1.889 3.717 2.363.942.315 1.698.174 2.644.096 1.274-.106 2.61.389 3.866.546 1.658.207 3.764.329 5.169-.759.918-.714 1.145-1.862 1.707-2.82.507-.864 1.361-1.582 1.59-2.589.263-1.143-.39-2.265-.832-3.275-.629-1.442-.962-2.955-1.334-4.478-.606-2.483-1.39-4.924-2.38-7.282-.589-1.402-1.249-3.187-2.73-3.872-1.227-.568-2.833-.711-4.167-.683-1.216.026-2.016.442-2.689 1.443l-.403.264z" fill="url(#F)" class="D"/><path d="M57.436 51.727c0 6.956-5.696 12.596-12.725 12.596s-12.727-5.639-12.727-12.596 5.698-12.593 12.727-12.593 12.726 5.639 12.726 12.593z" fill="url(#G)" class="B C E"/><path d="M7.381 18.789c-.432-.245-.927-.515-1.177-.966-.298-.532-.086-1.078.14-1.594.237-.54.426-1.049.493-1.636.057-.512.085-.903.484-1.27s.872-.634 1.233-1.054c.369-.429.633-.935 1.033-1.34.383-.39.835-.706 1.211-1.107.368-.394.649-.899 1.088-1.223.995-.73 2.207-.125 3.305-.311.517-.088.833-.39 1.001-.878.141-.407.1-.924.551-1.119.524-.229 1.247-.111 1.809-.24.708-.163 1.324-.576 2.024-.738.597-.14 1.178.052 1.735.257.608.224 1.258.46 1.785.847.558.412.934 1.008 1.38 1.53.331.39.785.683 1.09 1.086.341.45.383 1.09.437 1.633l.102 1.86-19.723 6.261z" fill="url(#H)" class="D"/><path d="M26.386 42.467c0 7.285-5.907 13.191-13.192 13.191S0 49.752 0 42.467s5.906-13.194 13.194-13.194 13.192 5.906 13.192 13.195z" class="B C E F"/><path d="M1.599 38.467c-.258 2.563-.608 5.08.367 7.545 1.096 2.768 3.335 5.513 6.068 6.799 2.4 1.127 5.198.782 7.036-1.202.828-.891 1.336-1.974 1.889-3.041.385-.745.863-1.348 1.439-1.951.587-.618 1.122-1.288 1.351-2.124.211-.772.089-1.509-.115-2.267-.184-.681-.24-1.278-.02-1.959.249-.776.719-1.478.905-2.272.163-.689-.119-1.106-.627-1.545-.642-.556-1.225-1.091-1.595-1.876-.344-.73-.406-1.599-.819-2.293-.421-.711-1.27-.888-2.024-1.026-1.181-.218-2.407-.389-3.608-.416-1.17-.028-2.266.25-3.358.654-1.414.522-2.855 1.14-4.082 2.029-1.212.88-1.953 2.052-2.596 3.381l.187.099-.399 1.467z" fill="url(#F)" class="D"/><path d="M52.905 13.415c0 7.214-5.43 13.061-12.128 13.061s-12.127-5.847-12.127-13.061S34.081.354 40.778.354s12.127 5.847 12.127 13.061z" fill="url(#C)" class="B C E"/><path d="M30.44 16.352c1.024 2.03 3.073 4 5.375 4.43 1.983.369 3.843-.852 5.59-1.6 1.841-.79 3.902-1.272 5.559-2.433 1.74-1.216 3.312-3.127 4.164-5.07.396-.904.59-1.886.366-2.862-.213-.92-.738-1.737-1.28-2.495-1.026-1.434-2.179-2.977-3.771-3.813-1.652-.867-3.685-1.137-5.525-1.25-4.488-.28-9.468 3.76-10.666 6.693s-1.058 5.93.19 8.401z" fill="url(#I)" class="D"/><g class="B C E"><path d="M32.826 20.782c0 7.324-5.698 13.259-12.726 13.259S7.373 28.106 7.373 20.782s5.7-13.259 12.728-13.259 12.726 5.936 12.726 13.259z" fill="url(#J)"/><path d="M47.042 41.532c4.265 6.53 10.928 5.199 10.928 5.199 7.506 0 13.194-9.508 13.194-17.126s-6.087-13.791-13.593-13.791-13.594 6.174-13.594 13.791c-.002 0-1.201 5.398 3.064 11.926z" fill="url(#K)"/></g><g class="D"><path d="M52.773 18.345l-.025.107c-1.49 1.758-3.456 3.854-3.439 6.288.007 1.122.665 2.012.981 3.078.377 1.259.346 2.738.751 3.986.877 2.698 1.604 5.735 3.73 7.729 1.971 1.846 4.911 2.792 7.464 1.867 2.135-.776 4.212-3.139 5.433-4.992 1.031-1.564 2.005-3.27 2.433-5.109.966-4.166-1.135-8.787-4.452-11.339-1.756-1.351-3.904-2.255-6.065-2.709-1.933-.407-3.729-.241-5.61.294l-1.2.801z" fill="url(#L)"/><path d="M12.303 18.45c-1.181 2.029-2.346 4.377-1.997 6.797.219 1.532 1.064 2.891 2.059 4.044.847.982 1.913 2.046 3.169 2.477.792.273 1.537.076 2.341.016.93-.068 1.837.153 2.763.176 1.15.024 2.129-.397 3.093-.992 1.063-.654 2.092-1.317 3.251-1.798.764-.315 1.678-.546 2.197-1.242.486-.649.679-1.502 1.082-2.207.558-.971 1.297-1.829 1.735-2.87.529-1.265.601-2.659.431-4.007-.316-2.494-1.462-4.537-3.468-6.07-.946-.72-2.309-1.54-3.538-1.081-.965.361-1.346 1.366-2.07 2.013-.833.745-1.938.48-2.953.441-1.11-.042-1.969.265-2.873.886-.768.525-1.512.828-2.393 1.109-.908.29-1.538.8-2.16 1.509l-.67.801z" fill="url(#M)"/><path d="M34.248 45.53c-.955 1.522-1.599 3.581-1.444 5.384.155 1.794 1.222 3.572 2.547 4.753 1.123 1.002 2.314 1.795 3.82 2.033.582.093 1.393.265 1.95-.013.533-.265.564-.951.614-1.472 1.282.486 2.4.698 3.767.532 1.415-.172 2.98-.284 4.16-1.163 1.175-.873 1.932-2.259 3.509-2.45 1.141-.138 2.663.367 3.078-1.106.387-1.366-.273-2.823-.663-4.114-.496-1.641-.971-3.172-2.078-4.529-2.141-2.628-5.91-4.402-9.324-4.038-1.737.187-3.532.966-5.093 1.711-1.643.787-2.796 1.889-3.775 3.405l-1.066 1.066z" fill="url(#N)"/><path d="M53.44 51.261h.088c-.636-.091-.621.343-.624.816-.005.554.055.924.477 1.301.311.276.914.486 1.225.102.301-.369.353-1.01.167-1.42l-1.331-.799zM22.431 10.72c-.338.189-.662.574-.415.937.243.356.724.504 1.14.406.293-.068.645-.559.62-.878-.025-.33-.441-.442-.677-.597l-.668.132zm23.012 4.029c-.297.39-.696 1.07-.531 1.584.178.555.904.2 1.307.124.045-.333.299-.571.298-.911 0-.371-.355-.358-.408-.665l-.665-.133zm2.798 12.792l-.022.111c-.879.08-1.604 1.961-.457 2.158.841.145 1.684-.777 1.523-1.581l-.111-.023-.933-.665zm-26.409 7.811c.101-.059.142-.142.124-.247-.531-.063-1.053.037-1.187.649-.123.577.08.968.469 1.351.211.21.3.459.617.517.269.052.507.018.643-.226.176-.319.27-1.093.001-1.377l-.668-.666z" fill="#803923"/></g></g></symbol></svg>