<svg xmlns="http://www.w3.org/2000/svg" xmlns:xlink="http://www.w3.org/1999/xlink" viewBox="0 0 76 59" fill="#fff" fill-rule="evenodd" stroke="#000" stroke-linecap="round" stroke-linejoin="round"><use xlink:href="#K" x=".5" y=".5"/><defs><radialGradient id="A" fx="40%" fy="71%" cy="46%" cx="53%" r="54%"><stop stop-color="#fff" offset="0%"/><stop stop-color="#faf4f1" offset="2%"/><stop stop-color="#f3e4db" offset="6.1%"/><stop stop-color="#eed7ca" offset="10.9%"/><stop stop-color="#eacebf" offset="16.8%"/><stop stop-color="#e8c8b8" offset="25.2%"/><stop stop-color="#e7c7b6" offset="48.3%"/><stop stop-color="#ceb29c" offset="82.6%"/><stop stop-color="#caaf9a" offset="86.6%"/><stop stop-color="#bda793" offset="90.7%"/><stop stop-color="#a99a87" offset="94.8%"/><stop stop-color="#8c8777" offset="99%"/><stop stop-color="#848273" offset="100%"/></radialGradient><radialGradient id="B" fx="57%" fy="41%" cy="46%" cx="53%" r="54%"><stop stop-color="#fff" offset="0%"/><stop stop-color="#faf4f1" offset="2%"/><stop stop-color="#f3e4db" offset="6.1%"/><stop stop-color="#eed7ca" offset="10.9%"/><stop stop-color="#eacebf" offset="16.8%"/><stop stop-color="#e8c8b8" offset="25.2%"/><stop stop-color="#e7c7b6" offset="48.3%"/><stop stop-color="#ceb29c" offset="82.6%"/><stop stop-color="#caaf9a" offset="86.6%"/><stop stop-color="#bda793" offset="90.7%"/><stop stop-color="#a99a87" offset="94.8%"/><stop stop-color="#8c8777" offset="99%"/><stop stop-color="#848273" offset="100%"/></radialGradient><radialGradient id="C" fx="58%" fy="40%" cy="46%" cx="53%" r="54%"><stop stop-color="#fff" offset="0%"/><stop stop-color="#faf4f1" offset="2%"/><stop stop-color="#f3e4db" offset="6.1%"/><stop stop-color="#eed7ca" offset="10.9%"/><stop stop-color="#eacebf" offset="16.8%"/><stop stop-color="#e8c8b8" offset="25.2%"/><stop stop-color="#e7c7b6" offset="48.3%"/><stop stop-color="#ceb29c" offset="82.6%"/><stop stop-color="#caaf9a" offset="86.6%"/><stop stop-color="#bda793" offset="90.7%"/><stop stop-color="#a99a87" offset="94.8%"/><stop stop-color="#8c8777" offset="99%"/><stop stop-color="#848273" offset="100%"/></radialGradient><radialGradient id="D" fx="23%" fy="47%" cy="46%" cx="53%" r="54%"><stop stop-color="#fff" offset="0%"/><stop stop-color="#faf4f1" offset="2%"/><stop stop-color="#f3e4db" offset="6.1%"/><stop stop-color="#eed7ca" offset="10.9%"/><stop stop-color="#eacebf" offset="16.8%"/><stop stop-color="#e8c8b8" offset="25.2%"/><stop stop-color="#e7c7b6" offset="48.3%"/><stop stop-color="#ceb29c" offset="82.6%"/><stop stop-color="#caaf9a" offset="86.6%"/><stop stop-color="#bda793" offset="90.7%"/><stop stop-color="#a99a87" offset="94.8%"/><stop stop-color="#8c8777" offset="99%"/><stop stop-color="#848273" offset="100%"/></radialGradient><radialGradient id="E" fx="31%" fy="70%" cy="50%" cx="50%" r="50%"><stop stop-color="#fef6fa" offset="0%"/><stop stop-color="#f9eff2" offset="5.2%"/><stop stop-color="#efe1e2" offset="18.4%"/><stop stop-color="#e9d9d9" offset="33.6%"/><stop stop-color="#e7d7d6" offset="55.1%"/><stop stop-color="#e5d5d3" offset="71.7%"/><stop stop-color="#e0cdca" offset="83.5%"/><stop stop-color="#d6c1ba" offset="93.9%"/><stop stop-color="#ceb6ad" offset="100%"/></radialGradient><radialGradient id="F" fx="62%" fy="48%" cy="50%" cx="50%" r="50%"><stop stop-color="#fef6fa" offset="0%"/><stop stop-color="#f4e9eb" offset="6.7%"/><stop stop-color="#eddfdf" offset="15.6%"/><stop stop-color="#e8d9d8" offset="28%"/><stop stop-color="#e7d7d6" offset="61.8%"/><stop stop-color="#e5d5d3" offset="75.9%"/><stop stop-color="#e0cdca" offset="86%"/><stop stop-color="#d6c1ba" offset="94.8%"/><stop stop-color="#ceb6ad" offset="100%"/></radialGradient><radialGradient id="G" cy="50%" cx="33%" r="78%" fx="33%" fy="50%"><stop stop-color="#fef6fa" offset="0%"/><stop stop-color="#fdf4f8" offset="2.4%"/><stop stop-color="#eddfdf" offset="35.1%"/><stop stop-color="#e7d7d6" offset="55.1%"/><stop stop-color="#e6d6d4" offset="56.6%"/><stop stop-color="#d4c3bf" offset="82.9%"/><stop stop-color="#cebcb7" offset="100%"/></radialGradient><radialGradient id="H" fx="65%" fy="32%" cy="49%" cx="33%" r="78%"><stop stop-color="#fef6fa" offset="0%"/><stop stop-color="#f7ecef" offset="7.1%"/><stop stop-color="#eee0e1" offset="20%"/><stop stop-color="#e9d9d8" offset="35.9%"/><stop stop-color="#e7d7d6" offset="63.5%"/><stop stop-color="#e1d0ce" offset="77.2%"/><stop stop-color="#d0beb9" offset="98.1%"/><stop stop-color="#cebcb7" offset="100%"/></radialGradient><radialGradient id="I" cy="61%" cx="38%" r="65%" fx="38%" fy="61%"><stop stop-color="#fef6fa" offset="0%"/><stop stop-color="#e7d7d6" offset="55.1%"/><stop stop-color="#e5d5d3" offset="71.7%"/><stop stop-color="#e0cdca" offset="83.5%"/><stop stop-color="#d6c1ba" offset="93.9%"/><stop stop-color="#ceb6ad" offset="100%"/></radialGradient><radialGradient id="J" cy="57%" cx="49%" r="59%" fx="49%" fy="57%"><stop stop-color="#fef6fa" offset="0%"/><stop stop-color="#e8e3dc" offset="55.1%"/><stop stop-color="#e6e0d9" offset="70.9%"/><stop stop-color="#e1d7d0" offset="82.1%"/><stop stop-color="#d9c8c0" offset="91.9%"/><stop stop-color="#ceb6ad" offset="100%"/></radialGradient></defs><symbol id="K" overflow="visible"><g stroke="none" fill-rule="nonzero"><path d="M50.421 29.752c2.481-6.518 9.772-9.79 16.287-7.31s9.791 9.772 7.312 16.287-9.772 9.79-16.287 7.311a12.63 12.63 0 0 1-7.311-16.289z" fill="url(#A)"/><path d="M30.114 40.11c2.477-6.518 9.77-9.79 16.287-7.31s9.79 9.772 7.311 16.287-9.772 9.79-16.287 7.311-9.792-9.772-7.311-16.287z" fill="url(#B)"/><path d="M6.89 33.543c2.479-6.516 9.772-9.791 16.289-7.311s9.79 9.772 7.309 16.287-9.77 9.79-16.287 7.31-9.788-9.771-7.31-16.287z" fill="url(#C)"/><path d="M25.045 16.254a12.63 12.63 0 0 1 16.289-7.311 12.63 12.63 0 0 1 7.31 16.289 12.63 12.63 0 0 1-16.287 7.312 12.63 12.63 0 0 1-7.311-16.29z" fill="url(#D)"/><path d="M41.427 40.706c-5.005 3.598-11.79 2.722-15.153-1.957s-2.03-11.39 2.975-14.988 11.792-2.722 15.154 1.957 2.031 11.391-2.976 14.988z" fill="url(#E)"/><path d="M26.711 19.161c-5.004 3.597-11.79 2.721-15.153-1.96S9.527 5.815 14.535 2.217s11.79-2.722 15.153 1.957 2.031 11.389-2.978 14.988z" fill="url(#F)"/><path d="M59.721 33.384c-4.913 3.531-11.586 2.649-14.903-1.967s-2.027-11.221 2.886-14.752 11.586-2.652 14.905 1.965 2.025 11.221-2.888 14.754z" fill="url(#G)"/><path d="M20.17 32.255c-4.563 3.278-10.95 2.194-14.268-2.422S3.594 18.814 8.155 15.536s10.95-2.194 14.269 2.424 2.31 11.018-2.253 14.295z" fill="url(#H)"/><path d="M45.529 19.598c-4.601 3.307-10.784 2.575-13.812-1.637s-1.749-10.307 2.85-13.613 10.785-2.573 13.814 1.637 1.75 10.306-2.852 13.613z" fill="url(#I)"/><path d="M15.126 43.678c-4.384 3.15-10.389 2.289-13.415-1.921S-.219 31.578 4.165 28.428s10.389-2.289 13.415 1.921 1.927 10.18-2.455 13.329z" fill="url(#J)"/></g></symbol></svg>